<svg t="1586414583892" class="icon" viewBox="0 0 1024 1024" version="1.1" xmlns="http://www.w3.org/2000/svg" p-id="3366" width="200" height="200"><path d="M459.1616 863.8976c0-29.184 22.784-53.1456 50.8928-53.1456 28.0576 0 50.8416 23.9104 50.8416 53.1456 0 29.5936-22.784 53.504-50.8416 53.504-28.16 0-50.8928-23.9104-50.8928-53.504zM300.1344 106.5984h419.84c24.6784 0 44.8 20.8896 44.8 47.0528v524.6976c0 26.2144-20.1216 47.0528-44.8 47.0528h-419.84c-24.6784 0-44.8-20.8384-44.8-47.0528V153.6512c0-26.1632 20.1216-47.0528 44.8-47.0528zM153.6 938.5984C153.6 985.7536 190.0544 1024 235.2128 1024h550.0416c44.8 0 81.2032-38.3488 81.2032-85.3504V85.3504C866.4576 38.2976 830.0544 0 785.2544 0H235.2128C190.0544 0 153.6 38.2976 153.6 85.3504v853.2992z" p-id="3367"></path></svg>